# xmcd
#
# Track frame offsets: 
#        150
#        16497
#        31869
#        44292
#        59962
#        78465
#        93202
#        110187
#        128762
#        145447
#        162442
#        179437
#        191767
#
# Disc length: 2727 seconds
#
# Revision: 0
# Processed by: cddbd v1.5.2PL0 Copyright (c) Steve Scherf et al.
# Submitted via: ExactAudioCopy v0.99pb5
#
DISCID=bc0aa50d
DTITLE=Various Artist - Rodeo Super Hits 2
DYEAR=1900
DGENRE=Country
TTITLE0=Pickup Man - Joe Diffie
TTITLE1=Faith in Me, faith in You - Doug Stone
TTITLE2=Don't Stop - Wade Hayes
TTITLE3=This is Me Missing You - James House
TTITLE4=You Don't Even Know Who I Am - Patty Loveless
TTITLE5=Bobbie Ann Mason - Rick Trevino
TTITLE6=House of Cards - Mary Chapin Carpenter
TTITLE7=If I Were You - Collin Raye
TTITLE8=What Mattered Most - Ty Herndon
TTITLE9=Halfway Down - Patty Loveless
TTITLE10=Can't You Hear Me Calling - Ricky Skaggs
TTITLE11=A Sleepin at the Foot of the Bed - Little Jimmy Dickens
TTITLE12=When I Stop Dreaming - Jim and Jessse
EXTD=
EXTT0=
EXTT1=
EXTT2=
EXTT3=
EXTT4=
EXTT5=
EXTT6=
EXTT7=
EXTT8=
EXTT9=
EXTT10=
EXTT11=
EXTT12=
PLAYORDER=
